<?xml version="1.0" encoding="iso-8859-1"?>
<!-- Generator: Adobe Illustrator 16.0.0, SVG Export Plug-In . SVG Version: 6.00 Build 0)  -->
<!DOCTYPE svg PUBLIC "-//W3C//DTD SVG 1.1//EN" "http://www.w3.org/Graphics/SVG/1.1/DTD/svg11.dtd">
<svg version="1.1" id="Capa_1" xmlns="http://www.w3.org/2000/svg" xmlns:xlink="http://www.w3.org/1999/xlink" x="0px" y="0px"
	 width="425.178px" height="425.178px" viewBox="0 0 425.178 425.178" style="enable-background:new 0 0 425.178 425.178;"
	 xml:space="preserve">
<g>
	<g>
		<rect y="361.617" width="39.447" height="39.449"/>
		<rect y="313.412" width="39.447" height="39.433"/>
		<rect y="265.183" width="39.447" height="39.441"/>
		<rect y="216.969" width="39.447" height="39.449"/>
		<rect y="168.746" width="39.447" height="39.447"/>
		<rect y="120.537" width="39.447" height="39.443"/>
		<rect y="72.323" width="39.447" height="39.447"/>
		<rect y="24.112" width="39.447" height="39.447"/>
		<rect x="48.218" y="361.617" width="39.447" height="39.449"/>
		<rect x="48.218" y="313.412" width="39.447" height="39.433"/>
		<rect x="48.218" y="265.183" width="39.447" height="39.441"/>
		<rect x="48.218" y="216.969" width="39.447" height="39.449"/>
		<rect x="48.218" y="168.746" width="39.447" height="39.447"/>
		<rect x="96.435" y="361.617" width="39.439" height="39.449"/>
		<rect x="96.435" y="313.412" width="39.439" height="39.433"/>
		<rect x="96.435" y="265.183" width="39.439" height="39.441"/>
		<rect x="144.645" y="361.617" width="39.447" height="39.449"/>
		<rect x="144.645" y="313.412" width="39.447" height="39.433"/>
		<rect x="144.645" y="265.183" width="39.447" height="39.441"/>
		<rect x="144.645" y="216.969" width="39.447" height="39.449"/>
		<rect x="144.645" y="168.746" width="39.447" height="39.447"/>
		<rect x="144.645" y="120.537" width="39.447" height="39.443"/>
		<rect x="192.859" y="361.617" width="39.445" height="39.449"/>
		<rect x="192.859" y="313.412" width="39.445" height="39.433"/>
		<rect x="241.085" y="361.617" width="39.441" height="39.449"/>
		<rect x="241.085" y="313.412" width="39.441" height="39.433"/>
		<rect x="241.085" y="265.183" width="39.441" height="39.441"/>
		<rect x="241.085" y="216.969" width="39.441" height="39.449"/>
		<rect x="241.085" y="168.746" width="39.441" height="39.447"/>
		<rect x="241.085" y="120.537" width="39.441" height="39.443"/>
		<rect x="241.085" y="72.323" width="39.441" height="39.447"/>
		<rect x="289.299" y="361.617" width="39.444" height="39.449"/>
		<rect x="337.504" y="361.617" width="39.453" height="39.449"/>
		<rect x="337.504" y="313.412" width="39.453" height="39.433"/>
		<rect x="337.504" y="265.183" width="39.453" height="39.441"/>
		<rect x="385.725" y="361.617" width="39.453" height="39.449"/>
		<rect x="385.725" y="313.412" width="39.453" height="39.433"/>
		<rect x="385.725" y="265.183" width="39.453" height="39.441"/>
		<rect x="385.725" y="216.969" width="39.453" height="39.449"/>
	</g>
</g>
<g>
</g>
<g>
</g>
<g>
</g>
<g>
</g>
<g>
</g>
<g>
</g>
<g>
</g>
<g>
</g>
<g>
</g>
<g>
</g>
<g>
</g>
<g>
</g>
<g>
</g>
<g>
</g>
<g>
</g>
</svg>
